Coordinates
nRows=317
nColumns=2
inDegrees=yes
endheader
time	ankle_angle_r	
2.92723	  0.320435	
2.9605	  0.244141	
2.99376	  0.183105	
3.02702	  0.274658	
3.06029	  0.289917	
3.09355	  0.213623	
3.12682	  0.259399	
3.16008	  0.289917	
3.19334	  0.228882	
3.22661	  0.289917	
3.25987	  0.289917	
3.29314	  0.244141	
3.3264	  0.335693	
3.35966	  0.305176	
3.39293	  0.183105	
3.42619	  0.274658	
3.45946	  0.335693	
3.49272	  0.152588	
3.52598	  0.228882	
3.55925	  0.289917	
3.59251	  0.183105	
3.62578	  0.228882	
3.65904	  0.289917	
3.6923	  0.213623	
3.72557	  0.259399	
3.75883	  0.289917	
3.7921	  0.198364	
3.82536	  0.259399	
3.85862	  0.320435	
3.89189	  0.198364	
3.92515	  0.228882	
3.95842	  0.274658	
3.99168	  0.167847	
4.02494	  0.244141	
4.05821	  0.274658	
4.09147	  0.152588	
4.12474	  0.274658	
4.158	  0.259399	
4.19126	  0.213623	
4.22453	  0.274658	
4.25779	  0.259399	
4.29106	  0.183105	
4.32432	  0.244141	
4.35758	  0.228882	
4.39085	  0.183105	
4.42411	  0.259399	
4.45738	  0.228882	
4.49064	  0.167847	
4.5239	  0.305176	
4.55717	  0.244141	
4.59043	  0.183105	
4.6237	  0.289917	
4.65696	  0.183105	
4.69022	  0.183105	
4.72349	  0.259399	
4.75675	  0.152588	
4.79002	  0.152588	
4.82328	  0.244141	
4.85654	  0.167847	
4.88981	  0.183105	
4.92307	  0.259399	
4.95634	  0.198364	
4.9896	  0.183105	
5.02286	  0.274658	
5.05613	  0.228882	
5.08939	  0.167847	
5.12266	  0.259399	
5.15592	  0.183105	
5.18918	  0.167847	
5.22245	  0.259399	
5.25571	  0.137329	
5.28898	  0.198364	
5.32224	  0.259399	
5.3555	  0.152588	
5.38877	  0.137329	
5.42203	  0.228882	
5.4553	  0.091553	
5.48856	  0.183105	
5.52182	  0.213623	
5.55509	  0.137329	
5.58835	  0.183105	
5.62162	  0.228882	
5.65488	  0.137329	
5.68814	  0.183105	
5.72141	  0.244141	
5.75467	  0.137329	
5.78794	  0.183105	
5.8212	  0.228882	
5.85446	  0.152588	
5.88773	  0.122070	
5.92099	  0.183105	
5.95426	  0.167847	
5.98752	  0.122070	
6.02078	  0.213623	
6.05405	  0.106812	
6.08731	  0.152588	
6.12058	  0.228882	
6.15384	  0.106812	
6.1871	  0.152588	
6.22037	  0.198364	
6.25363	  0.137329	
6.2869	  0.152588	
6.32016	  0.167847	
6.35342	  0.076294	
6.38669	  0.091553	
6.41995	  0.228882	
6.45322	  0.167847	
6.48648	  0.137329	
6.51974	  0.213623	
6.55301	  0.167847	
6.58627	  0.152588	
6.61954	  0.213623	
6.6528	  0.183105	
6.68606	  0.106812	
6.71933	  0.213623	
6.75259	  0.122070	
6.78586	  0.106812	
6.81912	  0.228882	
6.85238	  0.152588	
6.88565	  0.137329	
6.91891	  0.213623	
6.95218	  0.167847	
6.98544	  0.106812	
7.0187	  0.213623	
7.05197	  0.198364	
7.08523	  0.152588	
7.1185	  0.259399	
7.15176	  0.137329	
7.18502	  0.137329	
7.21829	  0.213623	
7.25155	  0.152588	
7.28482	  0.183105	
7.31808	  0.274658	
7.35134	  0.228882	
7.38461	  0.183105	
7.41787	  0.274658	
7.45114	  0.137329	
7.4844	  0.183105	
7.51766	  0.228882	
7.55093	  0.152588	
7.58419	  0.183105	
7.61746	  0.244141	
7.65072	  0.167847	
7.68398	  0.198364	
7.71725	  0.183105	
7.75051	  0.152588	
7.78378	  0.228882	
7.81704	  0.244141	
7.8503	  0.198364	
7.88357	  0.213623	
7.91683	  0.228882	
7.9501	  0.167847	
7.98336	  0.244141	
8.01662	  0.244141	
8.04989	  0.213623	
8.08315	  0.305176	
8.11642	  0.274658	
8.14968	  0.244141	
8.18294	  0.305176	
8.21621	  0.305176	
8.24947	  0.228882	
8.28274	  0.259399	
8.316	  0.274658	
8.34926	  0.198364	
8.38253	  0.244141	
8.41579	  0.244141	
8.44906	  0.198364	
8.48232	  0.259399	
8.51558	  0.244141	
8.54885	  0.228882	
8.58211	  0.274658	
8.61538	  0.259399	
8.64864	  0.198364	
8.6819	  0.320435	
8.71517	  0.244141	
8.74843	  0.228882	
8.7817	  0.289917	
8.81496	  0.259399	
8.84822	  0.213623	
8.88149	  0.335693	
8.91475	  0.289917	
8.94802	  0.259399	
8.98128	  0.228882	
9.01454	  0.305176	
9.04781	  0.244141	
9.08107	  0.289917	
9.11434	  0.305176	
9.1476	  0.198364	
9.18086	  0.259399	
9.21413	  0.274658	
9.24739	  0.244141	
9.28066	  0.244141	
9.31392	  0.305176	
9.34718	  0.228882	
9.38045	  0.244141	
9.41371	  0.305176	
9.44698	  0.198364	
9.48024	  0.244141	
9.5135	  0.305176	
9.54677	  0.198364	
9.58003	  0.213623	
9.6133	  0.259399	
9.64656	  0.213623	
9.67982	  0.274658	
9.71309	  0.274658	
9.74635	  0.213623	
9.77962	  0.274658	
9.81288	  0.335693	
9.84614	  0.259399	
9.87941	  0.259399	
9.91267	  0.305176	
9.94594	  0.228882	
9.9792	  0.244141	
10.0125	  0.305176	
10.0457	  0.259399	
10.079	  0.274658	
10.1123	  0.289917	
10.1455	  0.228882	
10.1788	  0.259399	
10.212	  0.259399	
10.2453	  0.198364	
10.2786	  0.244141	
10.3118	  0.274658	
10.3451	  0.183105	
10.3784	  0.244141	
10.4116	  0.244141	
10.4449	  0.213623	
10.4782	  0.259399	
10.5114	  0.320435	
10.5447	  0.244141	
10.578	  0.259399	
10.6112	  0.305176	
10.6445	  0.228882	
10.6777	  0.259399	
10.711	  0.244141	
10.7443	  0.213623	
10.7775	  0.259399	
10.8108	  0.228882	
10.8441	  0.152588	
10.8773	  0.259399	
10.9106	  0.274658	
10.9439	  0.198364	
10.9771	  0.274658	
11.0104	  0.244141	
11.0436	  0.198364	
11.0769	  0.213623	
11.1102	  0.228882	
11.1434	  0.198364	
11.1767	  0.259399	
11.21	  0.152588	
11.2432	  0.183105	
11.2765	  0.274658	
11.3098	  0.213623	
11.343	  0.228882	
11.3763	  0.183105	
11.4096	  0.183105	
11.4428	  0.183105	
11.4761	  0.183105	
11.5093	  0.198364	
11.5426	  0.167847	
11.5759	  0.228882	
11.6091	  0.152588	
11.6424	  0.152588	
11.6757	  0.183105	
11.7089	  0.152588	
11.7422	  0.198364	
11.7755	  0.213623	
11.8087	  0.183105	
11.842	  0.152588	
11.8752	  0.198364	
11.9085	  0.152588	
11.9418	  0.198364	
11.975	  0.259399	
12.0083	  0.122070	
12.0416	  0.183105	
12.0748	  0.259399	
12.1081	  0.167847	
12.1414	  0.198364	
12.1746	  0.228882	
12.2079	  0.137329	
12.2412	  0.167847	
12.2744	  0.198364	
12.3077	  0.152588	
12.3409	  0.137329	
12.3742	  0.198364	
12.4075	  0.152588	
12.4407	  0.137329	
12.474	  0.198364	
12.5073	  0.122070	
12.5405	  0.152588	
12.5738	  0.244141	
12.6071	  0.137329	
12.6403	  0.152588	
12.6736	  0.183105	
12.7068	  0.137329	
12.7401	  0.137329	
12.7734	  0.244141	
12.8066	  0.152588	
12.8399	  0.137329	
12.8732	  0.228882	
12.9064	  0.228882	
12.9397	  0.137329	
12.973	  0.198364	
13.0062	  0.183105	
13.0395	  0.137329	
13.0728	  0.198364	
13.106	  0.137329	
13.1393	  0.106812	
13.1725	  0.198364	
13.2058	  0.122070	
13.2391	  0.122070	
13.2723	  0.213623	
13.3056	  0.106812	
13.3389	  0.137329	
13.3721	  0.228882	
13.4054	  0.152588	
13.4387	  0.137329	
